HIERARCHY
ROOT Hips
{
	OFFSET -3.958830 18.904000 13.208200
	CHANNELS 6 Xposition Yposition Zposition Zrotation Yrotation Xrotation 
	JOINT LHipJoint
	{
		OFFSET 0.000000 0.000000 0.000000
		CHANNELS 3 Zrotation Yrotation Xrotation
		JOINT LeftUpLeg
		{
			OFFSET 1.800000 -1.400000 0.085000
			CHANNELS 3 Zrotation Yrotation Xrotation
			JOINT LeftLeg
			{
				OFFSET 2.215000 -6.000000 0.000000
				CHANNELS 3 Zrotation Yrotation Xrotation
				JOINT LeftFoot
				{
					OFFSET 2.500000 -6.900000 0.000000
					CHANNELS 3 Zrotation Yrotation Xrotation
					JOINT LeftToeBase
					{
						OFFSET 0.200000 -0.500000 1.950000
						CHANNELS 3 Zrotation Yrotation Xrotation
						End Site
						{
							OFFSET 0.000000 0.000000 0.000000
						}
					}
				}
			}
		}
	}
	JOINT RHipJoint
	{
		OFFSET 0.000000 0.000000 0.000000
		CHANNELS 3 Zrotation Yrotation Xrotation
		JOINT RightUpLeg
		{
			OFFSET -1.800000 -1.400000 0.085000
			CHANNELS 3 Zrotation Yrotation Xrotation
			JOINT RightLeg
			{
				OFFSET -2.215000 -6.000000 0.000000
				CHANNELS 3 Zrotation Yrotation Xrotation
				JOINT RightFoot
				{
					OFFSET -2.500000 -6.900000 0.000000
					CHANNELS 3 Zrotation Yrotation Xrotation
					JOINT RightToeBase
					{
						OFFSET -0.200000 -0.500000 1.950000
						CHANNELS 3 Zrotation Yrotation Xrotation
						End Site
						{
							OFFSET 0.000000 0.000000 0.000000
						}
					}
				}
			}
		}
	}
	JOINT LowerBack
	{
		OFFSET 0.000000 0.000000 0.000000
		CHANNELS 3 Zrotation Yrotation Xrotation
		JOINT Spine
		{
			OFFSET -0.087000 1.940000 -0.288900
			CHANNELS 3 Zrotation Yrotation Xrotation
			JOINT Spine1
			{
				OFFSET 0.000000 1.950000 0.060000
				CHANNELS 3 Zrotation Yrotation Xrotation
				JOINT Neck
				{
					OFFSET 0.000000 0.000000 0.000000
					CHANNELS 3 Zrotation Yrotation Xrotation
					JOINT Neck1
					{
						OFFSET 0.000000 1.600000 0.340000
						CHANNELS 3 Zrotation Yrotation Xrotation
						JOINT Head
						{
							OFFSET 0.000000 1.667000 -0.240000
							CHANNELS 3 Zrotation Yrotation Xrotation
							End Site
							{
								OFFSET 0.000000 0.000000 0.000000
							}
						}
					}
				}
				JOINT LeftShoulder
				{
					OFFSET 0.000000 0.000000 0.000000
					CHANNELS 3 Zrotation Yrotation Xrotation
					JOINT LeftArm
					{
						OFFSET 2.700000 1.550000 -0.730000
						CHANNELS 3 Zrotation Yrotation Xrotation
						JOINT LeftForeArm
						{
							OFFSET 5.450000 0.000000 0.000000
							CHANNELS 3 Zrotation Yrotation Xrotation
							JOINT LeftHand
							{
								OFFSET 3.450000 0.000000 0.000000
								CHANNELS 3 Zrotation Yrotation Xrotation
								JOINT LeftHandIndex1
								{
									OFFSET 0.750000 0.000000 0.000000
									CHANNELS 3 Zrotation Yrotation Xrotation
									End Site
									{
										OFFSET 0.000000 0.000000 0.000000
									}
								}
							}
						}
					}
				}
				JOINT RightShoulder
				{
					OFFSET 0.000000 0.000000 0.000000
					CHANNELS 3 Zrotation Yrotation Xrotation
					JOINT RightArm
					{
						OFFSET -2.700000 1.550000 -0.730000
						CHANNELS 3 Zrotation Yrotation Xrotation
						JOINT RightForeArm
						{
							OFFSET -5.450000 0.000000 0.000000
							CHANNELS 3 Zrotation Yrotation Xrotation
							JOINT RightHand
							{
								OFFSET -3.450000 0.000000 0.000000
								CHANNELS 3 Zrotation Yrotation Xrotation
								JOINT RightHandIndex1
								{
									OFFSET -0.750000 0.000000 0.000000
									CHANNELS 3 Zrotation Yrotation Xrotation
									End Site
									{
										OFFSET 0.000000 0.000000 0.000000
									}
								}
							}
						}
					}
				}
			}
		}
	}
}
MOTION
Frames: 8
Frame Time: 0.016667
-0.927240 16.784140 -7.847460 -2.388596 -4.956497 2.575046 -15.040717 13.668481 2.994321 15.887617 -1.054975 -11.464980 -12.121353 9.132147 18.015635 -0.101917 5.938197 2.646196 0.353830 -0.005950 0.182620 18.214806 -11.005064 2.387732 -16.755639 1.028412 -22.868372 5.929452 -6.493068 20.979498 -0.170797 -3.715917 3.054874 0.000680 0.412330 0.355900 -3.597016 -2.079158 -7.324588 10.979072 -4.477141 12.351531 -3.096444 -4.133323 4.274257 1.922840 -5.274485 -9.505207 -9.421276 2.518066 24.433066 -1.027670 -0.148150 -11.348960 -14.090386 0.833377 0.738843 -40.118333 2.131812 -5.750275 39.077262 -13.080864 -3.930901 -3.912677 3.093763 0.452930 0.168700 -0.043920 0.317340 10.298738 3.510906 8.522996 41.445705 -4.005677 -5.027040 160.225312 58.626186 128.677531 1.897364 -1.941571 -0.147590 0.196060 -0.014370 -0.064780 
-0.921950 16.782250 -7.845450 -2.791792 -4.391281 3.245676 -15.015972 13.566796 3.002938 16.311702 -1.160098 -12.382721 -12.237357 9.199818 18.216086 -0.145205 5.984194 2.629698 0.349420 -0.019950 0.176870 18.254286 -10.992220 2.419479 -16.453448 1.245968 -23.416871 6.160970 -6.562421 21.230439 -0.150158 -3.752537 3.047513 0.017910 0.444550 0.342740 -3.702926 -1.905260 -7.306982 12.117607 -4.578078 12.028658 -3.392932 -4.174983 3.863073 1.918393 -5.381861 -9.225372 -9.322805 2.503014 23.322315 -1.035180 -0.279300 -10.768700 -13.703723 2.040829 0.346612 -40.598837 2.868199 -5.935188 39.719750 -14.233073 -4.185792 -3.938986 3.079922 0.442040 0.193040 -0.081690 0.319610 9.820132 2.370089 8.360766 40.969196 -4.366005 -4.350822 164.206075 57.386653 134.594407 1.860380 -2.022360 -0.178220 0.215680 -0.004110 -0.072320 
-0.917890 16.780470 -7.849430 -3.177476 -3.562743 3.981684 -15.004570 13.468088 3.072091 16.939771 -1.232697 -13.462923 -12.699165 9.342674 18.181330 -0.151363 6.045870 2.608550 0.302610 -0.081530 0.157230 18.269723 -10.960269 2.476925 -16.212133 1.583587 -24.067234 6.462946 -6.637068 21.497875 -0.126740 -3.753245 3.062575 -0.012020 0.471330 0.322980 -3.756014 -1.762948 -7.386783 12.836877 -4.458754 12.704196 -3.242218 -3.924218 2.618338 1.994926 -5.470231 -9.155341 -9.229658 2.488801 22.643168 -1.109810 -0.222950 -10.537920 -12.491870 4.127540 -0.088515 -42.111291 4.921273 -6.866360 40.945268 -17.931338 -5.180922 -3.944264 3.025719 0.445990 0.202780 -0.108620 0.304740 8.334094 0.675582 8.433724 41.106021 -5.230489 -3.790398 169.784864 55.541185 143.312881 1.851886 -2.080296 -0.208660 0.237000 0.022730 -0.080510 
-0.899430 16.789560 -7.841090 -3.541673 -2.683226 4.469900 -15.009284 13.427598 3.163741 17.420755 -1.180327 -13.776945 -13.219405 9.240808 17.111470 -0.130172 5.964718 2.623077 0.281330 -0.112140 0.166250 18.250830 -10.946039 2.520936 -16.111489 1.879853 -24.227614 6.673361 -6.681453 21.733699 -0.136123 -3.738278 3.069899 -0.053770 0.427360 0.316650 -3.734272 -1.698592 -7.517911 13.130060 -4.102246 14.095657 -2.672104 -3.361220 0.822595 2.293264 -5.221893 -9.142401 -8.655700 2.340287 22.609785 -1.627720 0.427470 -11.471370 -11.208222 6.730867 -0.624352 -43.530382 7.876073 -8.320311 41.199668 -22.904996 -6.363944 -3.887895 2.994718 0.477980 0.168230 -0.083710 0.285570 6.315852 -1.555330 8.664804 41.760856 -6.743215 -3.500343 176.521638 53.046553 154.762340 1.880457 -2.150083 -0.203070 0.208160 0.018810 -0.095550 
-0.879250 16.794120 -7.827210 -3.342236 -1.430854 5.566356 -15.049389 13.353798 3.253351 17.210088 -1.310106 -14.748598 -13.804236 9.074365 16.176169 -0.106584 5.834210 2.656161 0.270050 -0.129030 0.159570 18.205420 -10.879014 2.595786 -16.880013 2.057895 -24.501056 7.524279 -6.707258 20.900079 -0.135207 -3.720225 3.073076 -0.084070 0.405160 0.327880 -3.632226 -1.672221 -7.640053 11.876691 -3.479956 14.848719 -0.908598 -2.670740 -1.672795 2.103046 -4.623434 -8.757136 -7.470203 2.301012 22.289282 -1.420980 1.054860 -11.484620 -9.670374 10.243149 -0.955753 -44.315966 12.874954 -10.626697 38.987182 -31.189722 -7.942830 -3.817329 2.993434 0.483590 0.154280 -0.070250 0.285700 5.065307 -4.838825 8.197687 41.648441 -8.250688 -3.024227 -175.399614 49.682940 171.164818 1.920078 -2.239823 -0.185750 0.165340 0.008520 -0.094820 
-0.839730 16.802340 -7.809130 -3.474123 0.703707 7.012740 -15.072984 13.273684 3.373200 17.186246 -1.622654 -16.534088 -14.138070 8.900351 15.652357 -0.109896 5.744913 2.684708 0.180840 -0.252490 0.121950 18.175093 -10.803797 2.659821 -17.346061 2.192779 -24.410886 8.378086 -6.627785 19.385517 -0.091417 -3.641861 3.123448 -0.163670 0.424850 0.318120 -3.594788 -1.684327 -7.769982 11.716056 -3.280837 15.066178 0.184778 -2.059039 -4.837875 1.966677 -4.290183 -8.421251 -6.845313 2.007996 22.353703 -2.047290 1.658050 -9.818060 -7.900242 13.743204 -1.422940 -45.652296 16.976785 -12.784604 40.069107 -37.429993 -9.730514 -3.814774 2.952969 0.488080 0.168920 -0.103740 0.254800 3.338902 -8.011659 7.953354 43.557728 -10.069354 -3.439228 -166.909093 46.158526 -169.039106 1.956593 -2.253010 -0.211670 0.146650 0.051370 -0.111900 
-0.802980 16.798110 -7.785350 -3.199646 2.821161 8.436732 -15.102061 13.127274 3.474501 16.977462 -2.007054 -18.158563 -14.796019 8.848517 15.347720 -0.117613 5.715743 2.705298 0.123990 -0.320370 0.098200 18.161590 -10.735886 2.683368 -18.030634 2.175274 -24.276143 8.915595 -6.453627 17.858778 -0.057618 -3.579232 3.171987 -0.197920 0.458380 0.292930 -3.572029 -1.614927 -7.823662 10.789964 -2.995949 14.338439 1.056429 -1.565527 -6.646894 1.618479 -3.646648 -7.870492 -5.720002 1.702129 22.143525 -1.998440 2.245400 -8.430660 -6.147109 16.352318 -1.457345 -46.213910 20.760256 -15.252150 40.305003 -44.058523 -11.987835 -3.799527 2.905731 0.487480 0.192480 -0.132620 0.246400 2.202671 -10.889222 7.131680 45.329178 -11.767691 -4.644319 -160.627933 44.608031 -153.125499 1.954753 -2.245058 -0.249230 0.163810 0.068760 -0.122050 
-0.766740 16.794870 -7.772760 -3.251822 4.664842 9.969205 -15.135716 12.959322 3.591773 17.182006 -2.369355 -20.050313 -15.364606 8.854252 15.265706 -0.116647 5.735501 2.700133 0.077110 -0.376030 0.066180 18.160871 -10.646729 2.697002 -18.058445 2.404194 -24.871458 8.942588 -6.259977 17.343466 -0.023973 -3.518383 3.211685 -0.227150 0.499280 0.291110 -3.551008 -1.540950 -7.850562 9.999433 -2.700115 13.590447 2.060606 -1.053537 -8.200353 1.118840 -2.981615 -7.353374 -4.491707 1.404758 21.221448 -1.381480 2.638210 -7.040790 -4.175097 18.531472 -1.195083 -47.301292 24.579421 -17.848832 41.103364 -49.372736 -14.251268 -3.810638 2.898899 0.473730 0.225190 -0.161820 0.245080 1.187682 -13.421349 6.038765 46.767051 -13.288647 -6.287238 -154.282307 44.944098 -138.413750 1.947558 -2.236219 -0.269470 0.163080 0.086630 -0.121820 
